<svg xmlns="http://www.w3.org/2000/svg" width="765.11" height="10.6" viewBox="0 0 765.11 10.6">
  <defs>
    <style>
      .a {
        fill: #0079af;
      }
    </style>
  </defs>
  <title>Artboard 3</title>
  <path class="a" d="M763.32,2.42a3.16,3.16,0,0,0-3.62.47c-1.94,1.59-3.68,1.59-5.44,0a10.12,10.12,0,0,0-14.13-.06c-1.87,1.65-3.76,1.71-5.55,0a10.28,10.28,0,0,0-14.1,0A5.19,5.19,0,0,1,718.26,4c-1.45.36-2.56-.43-3.6-1.37a10.15,10.15,0,0,0-13.58.05c-2.05,1.86-3.62,1.91-5.77.18a3.06,3.06,0,0,0-.71-.43A9.83,9.83,0,0,0,688.48,0a10.1,10.1,0,0,0-7.1,2.47,7,7,0,0,1-1.84,1.29,3.74,3.74,0,0,1-4.15-1,10.15,10.15,0,0,0-14,0,5.08,5.08,0,0,1-1.52,1,3.74,3.74,0,0,1-4.14-1A9.75,9.75,0,0,0,649.06,0a10.18,10.18,0,0,0-7,2.54,7,7,0,0,1-2.28,1.37c-1.49.47-2.68-.27-3.76-1.27A9.66,9.66,0,0,0,629.56,0a10.41,10.41,0,0,0-7.43,2.85l0,0c-2,1.59-3.69,1.59-5.44,0a10.12,10.12,0,0,0-14.13-.06c-1.87,1.65-3.76,1.71-5.55,0a10.28,10.28,0,0,0-14.1,0A5.25,5.25,0,0,1,580.66,4c-1.45.36-2.56-.43-3.6-1.37a10.15,10.15,0,0,0-13.58.05c-2.05,1.86-3.62,1.91-5.77.18a3.34,3.34,0,0,0-2.83-.68A9.78,9.78,0,0,0,549.06,0,10.07,10.07,0,0,0,542,2.5a7.13,7.13,0,0,1-1.84,1.29,3.74,3.74,0,0,1-4.15-1,10.15,10.15,0,0,0-14,0,5.08,5.08,0,0,1-1.52,1,3.74,3.74,0,0,1-4.14-1A9.75,9.75,0,0,0,509.65,0a10.22,10.22,0,0,0-7,2.54,6.84,6.84,0,0,1-2.28,1.37c-1.48.47-2.67-.27-3.75-1.27A9.68,9.68,0,0,0,490.15,0a10.45,10.45,0,0,0-7,2.5,4.45,4.45,0,0,0-.54.38c-1.95,1.59-3.69,1.59-5.45,0A10.11,10.11,0,0,0,463,2.84c-1.87,1.65-3.76,1.71-5.55,0a10.28,10.28,0,0,0-14.1,0A5.25,5.25,0,0,1,441.14,4c-1.45.36-2.56-.43-3.6-1.37A10.15,10.15,0,0,0,424,2.66c-2,1.81-3.54,1.89-5.59.31a.81.81,0,0,1-.09-.1A10,10,0,0,0,411.62,0a10.07,10.07,0,0,0-7.09,2.47,7,7,0,0,1-1.85,1.29c-1.58.65-2.92.08-4.15-1a10.14,10.14,0,0,0-14,0,5.2,5.2,0,0,1-1.52,1,3.74,3.74,0,0,1-4.14-1A9.79,9.79,0,0,0,372.21,0a10.22,10.22,0,0,0-7,2.54,6.84,6.84,0,0,1-2.28,1.37c-1.48.47-2.67-.27-3.75-1.27A9.68,9.68,0,0,0,352.71,0a10.45,10.45,0,0,0-7,2.5,3.78,3.78,0,0,0-.54.38c-1.95,1.59-3.69,1.59-5.45,0a10.12,10.12,0,0,0-14.13-.06c-1.87,1.65-3.76,1.71-5.55,0a10.27,10.27,0,0,0-14.09,0A5.23,5.23,0,0,1,303.69,4c-1.44.36-2.55-.43-3.59-1.37a10.15,10.15,0,0,0-13.58.05c-2,1.86-3.63,1.91-5.78.18a3.83,3.83,0,0,0-.62-.4A9.91,9.91,0,0,0,274,0a10.07,10.07,0,0,0-7.09,2.47A7,7,0,0,1,265,3.79c-1.58.65-2.92.08-4.15-1a10.15,10.15,0,0,0-14,0,5,5,0,0,1-1.51,1,3.74,3.74,0,0,1-4.14-1A9.79,9.79,0,0,0,234.54,0a10.2,10.2,0,0,0-7,2.54,6.84,6.84,0,0,1-2.28,1.37c-1.48.47-2.67-.27-3.75-1.27A9.68,9.68,0,0,0,215,0a10.45,10.45,0,0,0-7,2.5,3.78,3.78,0,0,0-.54.38c-1.95,1.59-3.69,1.59-5.45,0a10.12,10.12,0,0,0-14.13-.06c-1.87,1.65-3.76,1.71-5.55,0a10.27,10.27,0,0,0-14.09,0A5.23,5.23,0,0,1,166,4c-1.45.36-2.55-.43-3.59-1.37a10.15,10.15,0,0,0-13.58.05c-2,1.86-3.63,1.91-5.78.18a3.06,3.06,0,0,0-.71-.43A9.83,9.83,0,0,0,136.24,0a10.11,10.11,0,0,0-7.1,2.47,7,7,0,0,1-1.84,1.29,3.74,3.74,0,0,1-4.15-1,10.15,10.15,0,0,0-14,0,5,5,0,0,1-1.51,1,3.75,3.75,0,0,1-4.15-1A9.75,9.75,0,0,0,96.82,0a10.18,10.18,0,0,0-7,2.54,6.94,6.94,0,0,1-2.28,1.37c-1.49.47-2.68-.27-3.76-1.27A9.66,9.66,0,0,0,77.32,0a10.4,10.4,0,0,0-7,2.5,3.87,3.87,0,0,0-.55.38c-1.94,1.59-3.68,1.59-5.44,0a10.12,10.12,0,0,0-14.13-.06c-1.87,1.65-3.76,1.71-5.55,0a10.28,10.28,0,0,0-14.1,0A5.19,5.19,0,0,1,28.31,4c-1.45.36-2.56-.43-3.6-1.37a10.15,10.15,0,0,0-13.58.05c-2.05,1.86-3.62,1.91-5.77.18A3.25,3.25,0,0,0,1.08,7.73a10,10,0,0,0,6.66,2.85A10,10,0,0,0,14.83,8.1a7.51,7.51,0,0,1,1.85-1.29,3.77,3.77,0,0,1,4.15,1,10.14,10.14,0,0,0,14,0,5.17,5.17,0,0,1,1.52-1,3.72,3.72,0,0,1,4.14,1,9.78,9.78,0,0,0,6.7,2.73,10.21,10.21,0,0,0,7-2.53,6.87,6.87,0,0,1,2.28-1.38C57.92,6.21,59.11,7,60.19,8a9.73,9.73,0,0,0,6.46,2.65,10.46,10.46,0,0,0,7-2.51,4.7,4.7,0,0,0,.54-.37c2-1.6,3.69-1.6,5.45,0a10.12,10.12,0,0,0,14.13.06c1.87-1.65,3.75-1.71,5.55,0a10.27,10.27,0,0,0,14.09,0,5.14,5.14,0,0,1,2.23-1.16c1.44-.36,2.55.43,3.59,1.38a10.16,10.16,0,0,0,13.58,0c2-1.87,3.62-1.92,5.77-.19a3.86,3.86,0,0,0,.72.44,9.89,9.89,0,0,0,6.12,2.38,10.07,10.07,0,0,0,7.1-2.48,7.46,7.46,0,0,1,1.84-1.29,3.76,3.76,0,0,1,4.15,1,10.15,10.15,0,0,0,14,0,5,5,0,0,1,1.51-1,3.74,3.74,0,0,1,4.15,1,9.74,9.74,0,0,0,6.7,2.73,10.17,10.17,0,0,0,7-2.53,7,7,0,0,1,2.28-1.38c1.49-.46,2.68.28,3.76,1.28a9.7,9.7,0,0,0,6.45,2.65,10.44,10.44,0,0,0,7-2.51,4.81,4.81,0,0,0,.55-.37c1.94-1.6,3.68-1.6,5.44,0a10.12,10.12,0,0,0,14.13.06c1.87-1.65,3.76-1.71,5.55,0a10.28,10.28,0,0,0,14.1,0,5.1,5.1,0,0,1,2.22-1.16c1.45-.36,2.56.43,3.6,1.38a10.16,10.16,0,0,0,13.58,0c2.05-1.87,3.62-1.92,5.77-.19a3.52,3.52,0,0,0,.63.4,9.9,9.9,0,0,0,6.16,2.42,10.07,10.07,0,0,0,7.1-2.48,7.46,7.46,0,0,1,1.84-1.29,3.76,3.76,0,0,1,4.15,1,10.15,10.15,0,0,0,14,0,5,5,0,0,1,1.51-1,3.74,3.74,0,0,1,4.15,1,9.74,9.74,0,0,0,6.7,2.73,10.17,10.17,0,0,0,7-2.53,7,7,0,0,1,2.28-1.38c1.49-.46,2.68.28,3.76,1.28A9.71,9.71,0,0,0,342,10.6a10.43,10.43,0,0,0,7-2.51,4.81,4.81,0,0,0,.55-.37c1.94-1.6,3.68-1.6,5.44,0a10.12,10.12,0,0,0,14.13.06c1.87-1.65,3.76-1.71,5.55,0a10.28,10.28,0,0,0,14.1,0,5.1,5.1,0,0,1,2.22-1.16c1.45-.36,2.56.43,3.6,1.38a10.16,10.16,0,0,0,13.58,0c2-1.81,3.53-1.9,5.59-.32a.81.81,0,0,0,.09.1,10,10,0,0,0,6.65,2.85,10.07,10.07,0,0,0,7.1-2.48,7.46,7.46,0,0,1,1.84-1.29,3.76,3.76,0,0,1,4.15,1,10.15,10.15,0,0,0,14,0,5.12,5.12,0,0,1,1.51-1,3.74,3.74,0,0,1,4.15,1,9.74,9.74,0,0,0,6.7,2.73,10.17,10.17,0,0,0,7-2.53,7,7,0,0,1,2.28-1.38C470.75,6.21,471.94,7,473,8a9.71,9.71,0,0,0,6.46,2.65,10.46,10.46,0,0,0,7-2.51,5.77,5.77,0,0,0,.54-.37c1.94-1.6,3.68-1.6,5.44,0a10.12,10.12,0,0,0,14.13.06c1.87-1.65,3.76-1.71,5.55,0a10.28,10.28,0,0,0,14.1,0,5.1,5.1,0,0,1,2.22-1.16c1.45-.36,2.56.43,3.6,1.38a10.16,10.16,0,0,0,13.58,0c2.05-1.87,3.62-1.92,5.77-.19a3.35,3.35,0,0,0,2.83.69,9.89,9.89,0,0,0,5.81,2.13,10.06,10.06,0,0,0,7.1-2.48A7.46,7.46,0,0,1,569,6.81a3.76,3.76,0,0,1,4.15,1,10.15,10.15,0,0,0,14,0,5,5,0,0,1,1.52-1,3.72,3.72,0,0,1,4.14,1,9.74,9.74,0,0,0,6.7,2.73,10.17,10.17,0,0,0,7-2.53,7,7,0,0,1,2.29-1.38c1.48-.46,2.67.28,3.75,1.28A9.71,9.71,0,0,0,619,10.6a10.41,10.41,0,0,0,7.43-2.86l0,0c1.95-1.6,3.69-1.6,5.44,0A10.12,10.12,0,0,0,646,7.76c1.87-1.65,3.76-1.71,5.55,0a10.28,10.28,0,0,0,14.1,0,5.16,5.16,0,0,1,2.22-1.16c1.45-.36,2.56.43,3.6,1.38a10.16,10.16,0,0,0,13.58,0c2-1.87,3.62-1.92,5.77-.19a4.14,4.14,0,0,0,.71.44,9.89,9.89,0,0,0,6.13,2.38,10,10,0,0,0,7.09-2.48,7.51,7.51,0,0,1,1.85-1.29,3.77,3.77,0,0,1,4.15,1,10.14,10.14,0,0,0,14,0,5.17,5.17,0,0,1,1.52-1,3.72,3.72,0,0,1,4.14,1,9.78,9.78,0,0,0,6.7,2.73,10.21,10.21,0,0,0,7-2.53,6.87,6.87,0,0,1,2.28-1.38c1.48-.46,2.67.28,3.75,1.28a9.73,9.73,0,0,0,6.46,2.65A10.41,10.41,0,0,0,764,7.73a3.2,3.2,0,0,0,1.07-2.34A3.07,3.07,0,0,0,763.32,2.42Z"/>
</svg>
