<svg xmlns="http://www.w3.org/2000/svg" width="74" height="89.99" viewBox="0 0 74 89.99">
  <defs>
    <style>
      .a {
        fill: #0079af;
      }

      .b {
        fill: #e53030;
      }
    </style>
  </defs>
  <title>Artboard 2</title>
  <g>
    <path d="M0,87.25l1.05-.17V78.79l-1-.16v-.25H3.47a6.87,6.87,0,0,1,2,.22,2,2,0,0,1,1.06.69,2,2,0,0,1,.33,1.22c0,1.09-.69,1.79-2.07,2.09v.06a3.74,3.74,0,0,1,2,.75A2,2,0,0,1,7.41,85a2.06,2.06,0,0,1-.91,1.85A4.4,4.4,0,0,1,4,87.49H0Zm3.56-4.68A1.87,1.87,0,0,0,5,82.06a2.08,2.08,0,0,0,.49-1.46v-.07c0-1.25-.67-1.87-2-1.87H2.3v3.91ZM4,87.21a2,2,0,0,0,1.5-.56A2.24,2.24,0,0,0,6.06,85v-.13a2.09,2.09,0,0,0-.53-1.55A2.09,2.09,0,0,0,4,82.85H2.3v4.36Z"/>
    <path d="M10.72,87.11a4,4,0,0,1-1.53-1.69,5.5,5.5,0,0,1-.55-2.49,5.56,5.56,0,0,1,.55-2.49,4.27,4.27,0,0,1,6-1.69,4.18,4.18,0,0,1,1.53,1.69,5.56,5.56,0,0,1,.54,2.49,5.5,5.5,0,0,1-.54,2.49,4.25,4.25,0,0,1-6,1.69ZM14.41,87a2.89,2.89,0,0,0,1-1.26,4.52,4.52,0,0,0,.38-2V82.06a4.54,4.54,0,0,0-.38-2,2.89,2.89,0,0,0-1-1.26,2.74,2.74,0,0,0-2.95,0,3,3,0,0,0-1,1.26,4.7,4.7,0,0,0-.37,2v1.75a4.68,4.68,0,0,0,.37,2,3,3,0,0,0,1,1.26,2.74,2.74,0,0,0,2.95,0Z"/>
    <path d="M17.57,87.35a.9.9,0,0,1-.26-.64.74.74,0,0,1,.2-.51.72.72,0,0,1,.55-.23.63.63,0,0,1,.35.09.64.64,0,0,1,.21.17l.07.12a.4.4,0,0,0-.2.35.31.31,0,0,0,.08.23.32.32,0,0,0,.24.09c.25,0,.46-.19.64-.56a6.72,6.72,0,0,0,.44-1.89c.12-.88.21-2.07.27-3.59l.08-1.84L19,78.64v-.26h6.63v.25l-1.06.16v8.29l1.06.17v.24H22.29v-.24l1.06-.17V78.66H20.57L20.47,81c-.08,1.7-.18,3-.3,3.91a5.21,5.21,0,0,1-.6,2,1.32,1.32,0,0,1-1.2.66A1.1,1.1,0,0,1,17.57,87.35Z"/>
    <path d="M26.57,87.49v-.24l1.05-.17V78.83l-1.05-.17v-.28h6.76v2.54H33l-.86-2.26H28.87v8.42l1.05.17v.24Z"/>
    <path d="M36.26,87.11a4,4,0,0,1-1.53-1.69,5.5,5.5,0,0,1-.55-2.49,5.56,5.56,0,0,1,.55-2.49,4,4,0,0,1,1.53-1.69,4.15,4.15,0,0,1,2.22-.6,4.2,4.2,0,0,1,2.22.6,4.09,4.09,0,0,1,1.52,1.69,5.43,5.43,0,0,1,.55,2.49,5.37,5.37,0,0,1-.55,2.49,4,4,0,0,1-1.52,1.69,4.21,4.21,0,0,1-2.22.61A4.16,4.16,0,0,1,36.26,87.11ZM40,87a2.89,2.89,0,0,0,1-1.26,4.68,4.68,0,0,0,.38-2V82.06a4.69,4.69,0,0,0-.38-2,2.89,2.89,0,0,0-1-1.26,2.74,2.74,0,0,0-3,0,2.89,2.89,0,0,0-1,1.26,4.7,4.7,0,0,0-.37,2v1.75a4.68,4.68,0,0,0,.37,2A2.89,2.89,0,0,0,37,87a2.74,2.74,0,0,0,3,0Z"/>
    <path d="M43.84,87.49v-.24l1-.17V78.83l-1-.17v-.28H50.6v2.54h-.34l-.86-2.26H46.14v8.42l1,.17v.24Z"/>
    <path d="M51.29,87.25l1.05-.17V78.79l-1.05-.16v-.25h3.58a3.69,3.69,0,0,1,2.5.71,3,3,0,0,1,0,4.15,3.69,3.69,0,0,1-2.5.72H53.59v3.12l1,.17v.24H51.29Zm3.42-3.57c1.4,0,2.11-.76,2.11-2.29v-.45c0-1.52-.71-2.28-2.11-2.28H53.59v5Z"/>
    <path d="M57.51,87.49v-.24l1.12-.46,3.29-8.64h.18l3.11,8.93,1.05.17v.24H62.91v-.24l.93-.15-1-2.7h-3l-.93,2.39,1,.46v.24Zm2.43-3.33H62.8l-1.37-4Z"/>
    <path d="M65.68,87.2h.37a1.21,1.21,0,0,0,.76-.31,2.91,2.91,0,0,0,.7-1A6,6,0,0,0,68,84.32a24.73,24.73,0,0,0,.27-2.73l.15-2.45-1.21-.5v-.26h6.67v.25l-1.06.16V87.2h1L74,90h-.34l-1.19-2.5H67L65.85,90h-.34Zm5.88,0V78.66H68.75l-.18,2.93a24.3,24.3,0,0,1-.3,2.81,7.63,7.63,0,0,1-.46,1.6,3.4,3.4,0,0,1-.38.67,3.33,3.33,0,0,1-.36.41l-.16.12Z"/>
  </g>
  <g>
    <path class="a" d="M47.22,1.48c0,.49.07,1,.07,1.47A16.75,16.75,0,0,1,14.51,7.84a36.14,36.14,0,0,0-6,50.56c11.16-1.79,14.7-3.08,12.59-5.83-10-13,.67-13.67.67-13.67,26.51-4.43,18.78-5.4,18.78-5.4C22.18,30.12,24.68,25.23,28.12,25c23.58-1.5,10.59-5.11,10.59-5.11S55.23,21.18,41.56,25c0,0-16.45,3.68,10.66,7.13,0,0,16.83,3.46-6.53,7.21-4.33.7-18,2.33,2.7,17.35,2.93,2.12,5.37,10.39-.87,14.06a36.17,36.17,0,0,0-.3-69.28Z"/>
    <path class="b" d="M30.54,19.71A16.75,16.75,0,0,0,47.29,3c0-.49,0-1-.07-1.47A36.13,36.13,0,0,0,14.51,7.84,16.76,16.76,0,0,0,30.54,19.71Z"/>
  </g>
</svg>
