<svg xmlns="http://www.w3.org/2000/svg" xmlns:xlink="http://www.w3.org/1999/xlink" width="74" height="89.99" viewBox="0 0 74 89.99">
  <defs>
    <style>
      .a {
        fill: none;
      }

      .b {
        fill: #fff;
      }

      .c {
        clip-path: url(#a);
      }

      .d {
        fill: #e53030;
      }
    </style>
    <clipPath id="a">
      <path class="a" d="M37,0A35.51,35.51,0,0,0,9,57.36c11-1.75,14.44-3,12.36-5.72C11.55,38.88,22,38.22,22,38.22c26.05-4.36,18.45-5.32,18.45-5.32-18-3.32-15.55-8.12-12.17-8.33,23.16-1.48,10.4-5,10.4-5s16.23,1.26,2.8,5c0,0-16.16,3.61,10.48,7,0,0,16.52,3.39-6.42,7.08-4.26.68-17.71,2.29,2.66,17,2.87,2.08,5.26,10.21-.86,13.81A35.53,35.53,0,0,0,37,0Z"/>
    </clipPath>
  </defs>
  <title>Artboard 2</title>
  <g>
    <g>
      <path class="b" d="M.67,85.71l1-.17V77.39l-1-.15V77H4.08A6.64,6.64,0,0,1,6,77.22a1.89,1.89,0,0,1,1,.67,2,2,0,0,1,.33,1.19c0,1.08-.68,1.76-2,2.06v.06a3.75,3.75,0,0,1,1.93.74A2,2,0,0,1,8,83.53a2,2,0,0,1-.9,1.82,4.36,4.36,0,0,1-2.44.59H.67Zm3.5-4.6a1.84,1.84,0,0,0,1.38-.5A2,2,0,0,0,6,79.17v-.06c0-1.23-.65-1.84-1.95-1.84H2.93v3.84Zm.45,4.56a1.93,1.93,0,0,0,1.48-.55,2.22,2.22,0,0,0,.53-1.58v-.13a2,2,0,0,0-.53-1.52,2.05,2.05,0,0,0-1.48-.5H2.93v4.28Z"/>
      <path class="b" d="M11.2,85.57a4,4,0,0,1-1.5-1.66A5.9,5.9,0,0,1,9.7,79a4,4,0,0,1,3.68-2.25,4.15,4.15,0,0,1,2.19.59A4,4,0,0,1,17.06,79a5.81,5.81,0,0,1,0,4.89,3.94,3.94,0,0,1-1.49,1.66,4.28,4.28,0,0,1-4.37,0Zm3.63-.09a2.76,2.76,0,0,0,1-1.23,4.54,4.54,0,0,0,.37-1.92V80.61a4.54,4.54,0,0,0-.37-1.92,2.79,2.79,0,0,0-1-1.24,2.71,2.71,0,0,0-2.9,0,2.86,2.86,0,0,0-1,1.24,4.7,4.7,0,0,0-.37,1.92v1.72a4.7,4.7,0,0,0,.37,1.92,2.83,2.83,0,0,0,1,1.23,2.66,2.66,0,0,0,2.9,0Z"/>
      <path class="b" d="M17.93,85.8a.81.81,0,0,1-.25-.62.76.76,0,0,1,.2-.51.71.71,0,0,1,.54-.22.62.62,0,0,1,.34.09.58.58,0,0,1,.2.17.3.3,0,0,1,.07.11.42.42,0,0,0-.2.35.28.28,0,0,0,.09.22.29.29,0,0,0,.23.09c.24,0,.45-.18.63-.55a6.9,6.9,0,0,0,.43-1.85c.12-.87.21-2,.27-3.53l.08-1.81-1.19-.49V77h6.51v.25l-1,.15v8.15l1,.17v.23H22.57v-.23l1-.17V77.27H20.88l-.1,2.3c-.07,1.67-.17,3-.29,3.84a5.23,5.23,0,0,1-.59,2,1.29,1.29,0,0,1-1.18.65A1.07,1.07,0,0,1,17.93,85.8Z"/>
      <path class="b" d="M26.78,85.94v-.23l1-.17v-8.1l-1-.17V77h6.63v2.5h-.33l-.84-2.22H29v8.27l1,.17v.23Z"/>
      <path class="b" d="M36.29,85.57a4,4,0,0,1-1.5-1.66,5.81,5.81,0,0,1,0-4.89,4.1,4.1,0,0,1,7.36,0,5.81,5.81,0,0,1,0,4.89,4.17,4.17,0,0,1-5.86,1.66Zm3.63-.09a2.76,2.76,0,0,0,1-1.23,4.54,4.54,0,0,0,.37-1.92V80.61a4.54,4.54,0,0,0-.37-1.92,2.79,2.79,0,0,0-1-1.24,2.71,2.71,0,0,0-2.9,0,2.79,2.79,0,0,0-1,1.24,4.54,4.54,0,0,0-.37,1.92v1.72A4.54,4.54,0,0,0,36,84.25a2.76,2.76,0,0,0,1,1.23,2.66,2.66,0,0,0,2.9,0Z"/>
      <path class="b" d="M43.74,85.94v-.23l1-.17v-8.1l-1-.17V77h6.64v2.5H50l-.84-2.22H46v8.27l1,.17v.23Z"/>
      <path class="b" d="M51.06,85.71l1-.17V77.39l-1-.15V77h3.51A3.63,3.63,0,0,1,57,77.7a3,3,0,0,1,0,4.07,3.63,3.63,0,0,1-2.46.7H53.32v3.07l1,.17v.23H51.06Zm3.36-3.5q2.07,0,2.07-2.25v-.45c0-1.49-.69-2.24-2.07-2.24h-1.1v4.94Z"/>
      <path class="b" d="M57.17,85.94v-.23l1.09-.45,3.24-8.49h.18l3.05,8.77,1,.17v.23H62.47v-.23l.92-.15-1-2.65h-3l-.9,2.35,1,.45v.23Zm2.38-3.26h2.81L61,78.74Z"/>
      <path class="b" d="M65.19,85.66h.37a1.18,1.18,0,0,0,.74-.3,3,3,0,0,0,.69-1,6.37,6.37,0,0,0,.47-1.54,23.56,23.56,0,0,0,.27-2.68l.15-2.41-1.19-.49V77h6.55v.25l-1,.15v8.27h1l.17,2.75H73l-1.16-2.47H66.52l-1.16,2.47H65Zm5.77,0V77.27H68.21L68,80.15a26.4,26.4,0,0,1-.29,2.76,6.79,6.79,0,0,1-.46,1.57,3.3,3.3,0,0,1-.37.66,2.53,2.53,0,0,1-.35.4c-.11.09-.16.13-.16.12Z"/>
    </g>
    <path class="b" d="M37,0A35.51,35.51,0,0,0,9,57.36c11-1.75,14.44-3,12.36-5.72C11.55,38.88,22,38.22,22,38.22c26.05-4.36,18.45-5.32,18.45-5.32-18-3.32-15.55-8.12-12.17-8.33,23.16-1.48,10.4-5,10.4-5s16.23,1.26,2.8,5c0,0-16.16,3.61,10.48,7,0,0,16.52,3.39-6.42,7.08-4.26.68-17.71,2.29,2.66,17,2.87,2.08,5.26,10.21-.86,13.81A35.53,35.53,0,0,0,37,0Z"/>
    <g class="c">
      <circle class="d" cx="30.67" cy="2.9" r="16.46"/>
    </g>
  </g>
</svg>
