<svg xmlns="http://www.w3.org/2000/svg" width="68.27" height="68.31" viewBox="0 0 68.27 68.31">
  <defs>
    <style>
      .a {
        fill: #d30000;
      }

      .b {
        fill: #d81f1f;
      }

      .c {
        fill: #d81d1d;
      }

      .d {
        fill: #da2727;
      }

      .e {
        fill: #ea8787;
      }

      .f {
        fill: #e04e4e;
      }

      .g {
        fill: #e98383;
      }

      .h {
        fill: #e77575;
      }

      .i {
        fill: #e77676;
      }

      .j {
        fill: #e25757;
      }

      .k {
        fill: #fefefe;
      }
    </style>
  </defs>
  <title>Artboard 4</title>
  <path class="a" d="M0,32.44v-.33a11.76,11.76,0,0,0,.09-1.45,23,23,0,0,1,.58-3.88A33.82,33.82,0,0,1,6.33,14.1a34.57,34.57,0,0,1,3-3.6,34,34,0,0,1,14.56-9A33.42,33.42,0,0,1,30.15.13c.51-.06,1-.06,1.53-.09,1.24,0,2.48,0,3.73,0A31.62,31.62,0,0,1,48,2.84a33.66,33.66,0,0,1,8.47,5.37,34.26,34.26,0,0,1,7.66,9.44A33.88,33.88,0,0,1,67.6,27a26.35,26.35,0,0,1,.65,5.45c0,.85,0,1.71,0,2.56a31,31,0,0,1-2.1,11.26,33.52,33.52,0,0,1-5.75,9.86,34.18,34.18,0,0,1-21.84,12c-.75.1-1.5.1-2.26.14-.11,0-.24,0-.35,0h-.34a.55.55,0,0,0-.4,0H35.1a.75.75,0,0,0-.47,0H33.57a.83.83,0,0,0-.54,0H32.9a.55.55,0,0,0-.4,0h-.4a11,11,0,0,0-1.52-.09,24.27,24.27,0,0,1-4.07-.63,33.35,33.35,0,0,1-7.82-2.81,34.06,34.06,0,0,1-7.38-5A34.42,34.42,0,0,1,4.25,51,33.9,33.9,0,0,1,.17,38.92C.05,38.09,0,37.26,0,36.43c0-.08,0-.18,0-.26v-.26c.07-.14,0-.28,0-.42v-.38a2.39,2.39,0,0,0,0-.6v-.67a2.84,2.84,0,0,0,0-.65v-.33C0,32.72,0,32.58,0,32.44Z"/>
  <path class="b" d="M0,33.16a1.31,1.31,0,0,1,0,.68v-.67S0,33.14,0,33.16Z"/>
  <path class="c" d="M0,34.51c.12.19.05.4.05.61,0,0,0,0,0,0Z"/>
  <path class="d" d="M33,68.31a.52.52,0,0,1,.54,0Z"/>
  <path class="d" d="M34.63,68.31a.39.39,0,0,1,.47,0Z"/>
  <path class="e" d="M0,32.44c.13.12,0,.26.05.39s0,.05,0,0Z"/>
  <path class="f" d="M0,35.11H0v.39s0,0,0,0Z"/>
  <path class="g" d="M0,35.51H0c0,.13.08.28,0,.4Z"/>
  <path class="h" d="M32.5,68.31a.29.29,0,0,1,.4,0Z"/>
  <path class="i" d="M35.23,68.31a.29.29,0,0,1,.4,0Z"/>
  <path class="j" d="M0,32.84H0v.33H0Z"/>
  <path class="k" d="M42.88,23.2H34.82a.63.63,0,0,1-.49-.21,10.12,10.12,0,0,0-10.56-2.83,10,10,0,0,0-7.31,7.89,10.46,10.46,0,0,0,8.4,12.47,10.25,10.25,0,0,0,7.9-1.75.72.72,0,0,1,.43-.15h9a17.6,17.6,0,1,1,.73-15.43Z"/>
  <path class="k" d="M48.52,29.71h13c.28,0,.37,0,.37.35,0,2,0,4,0,6.07,0,.26-.07.32-.33.32H52.36c-.28,0-.35.07-.35.34q0,9.38,0,18.74c0,.32-.09.39-.4.39-2.09,0-4.18,0-6.27,0-.36,0-.4-.1-.4-.42,0-6.22,0-12.44,0-18.67,0-.33-.09-.38-.4-.38H35.4c-.27,0-.35-.06-.35-.34,0-2,0-4,0-6,0-.28.06-.37.37-.36Z"/>
</svg>
