<svg xmlns="http://www.w3.org/2000/svg" width="75.16" height="10.6" viewBox="0 0 75.16 10.6">
  <defs>
    <style>
      .a {
        fill: #0079af;
      }
    </style>
  </defs>
  <title>Artboard 3</title>
  <path class="a" d="M66.65,10.6A9.73,9.73,0,0,1,60.19,8c-1.08-1-2.27-1.74-3.75-1.28a6.87,6.87,0,0,0-2.28,1.38,10.21,10.21,0,0,1-7,2.53,9.78,9.78,0,0,1-6.7-2.73,3.72,3.72,0,0,0-4.14-1,5.17,5.17,0,0,0-1.52,1,10.14,10.14,0,0,1-14,0,3.77,3.77,0,0,0-4.15-1A7.51,7.51,0,0,0,14.83,8.1a10,10,0,0,1-7.09,2.48A10,10,0,0,1,1.08,7.73,3.25,3.25,0,0,1,5.36,2.84c2.15,1.73,3.72,1.68,5.77-.18a10.15,10.15,0,0,1,13.58-.05c1,.94,2.15,1.73,3.6,1.37a5.19,5.19,0,0,0,2.22-1.15,10.28,10.28,0,0,1,14.1,0c1.79,1.71,3.68,1.65,5.55,0a10.12,10.12,0,0,1,14.13.06c1.76,1.58,3.5,1.58,5.44,0a3.16,3.16,0,0,1,3.62-.47,3.07,3.07,0,0,1,1.79,3,3.2,3.2,0,0,1-1.07,2.34A10.41,10.41,0,0,1,66.65,10.6Z"/>
</svg>
